<?xml version="1.0" encoding="utf-8"?>
<!-- Generator: Adobe Illustrator 23.0.2, SVG Export Plug-In . SVG Version: 6.00 Build 0)  -->
<svg version="1.1" id="Layer_1" xmlns="http://www.w3.org/2000/svg" x="0px" y="0px"
	 viewBox="0 0 17.5 16" style="enable-background:new 0 0 17.5 16;" xml:space="preserve">
<style type="text/css">
	.st0{fill:#FFFFFF;}
</style>
<title>hearth</title>
<desc>Created with Sketch.</desc>
<g id="Page-1">
	<g id="Artist-ikone" transform="translate(-516.000000, -362.000000)">
		<g id="hearth" transform="translate(516.000000, 362.000000)">
			<path id="Shape" class="st0" d="M4.6,1.5C7,1.5,8.2,4,8.8,5.2c0.5-1.1,1.8-3.7,4.2-3.7c1.5,0,3.1,1,3.1,3c0,2.5-3.5,5.7-7.3,9.5
				C5,10.3,1.5,7,1.5,4.5C1.5,2.6,2.9,1.5,4.6,1.5z M4.6,0C2.3,0,0,1.6,0,4.5C0,7.9,4.1,11.4,8.7,16c4.7-4.6,8.7-8.1,8.7-11.5
				c0-2.9-2.3-4.5-4.6-4.5c-1.6,0-3.2,0.8-4.2,2.4C7.8,0.8,6.2,0,4.6,0z"/>
		</g>
	</g>
</g>
</svg>
