<svg width="17px" height="16px" viewBox="0 0 17 16" version="1.1" xmlns="http://www.w3.org/2000/svg">
    <g id="Page-1" stroke="none" stroke-width="1" fill="none" fill-rule="evenodd">
        <g id="Artist-ikone" transform="translate(-204.000000, -427.000000)" fill="#000000" fill-rule="nonzero">
            <g id="apple-music" transform="translate(204.000000, 427.000000)">
                <path d="M16.31796,4.08266667 C16.31796,3.59066667 16.27376,3.10266667 16.15476,2.62266667 C15.9392,1.74933333 15.4326,1.08266667 14.67236,0.594 C14.28204,0.344666667 13.85364,0.19 13.396,0.109333333 C13.04444,0.0473333333 12.69016,0.0193333333 12.33248,0.00933333333 C12.30528,0.00733333333 12.27604,0.00266666667 12.24816,0.000666666667 L4.07184,0.000666666667 C3.96848,0.00733333333 3.8658,0.012 3.76244,0.018 C3.25448,0.0466666667 2.74924,0.1 2.2712,0.285333333 C1.36272,0.638666667 0.7072,1.25333333 0.323,2.13866667 C0.19244,2.43733333 0.12444,2.75533333 0.07616,3.07733333 C0.03808,3.33866667 0.01632,3.60066667 0.00816,3.864 C0.00816,3.88533333 0.0034,3.90533333 0.00136,3.926 L0.00136,12.0746667 C0.00816,12.168 0.01292,12.2633333 0.01972,12.3573333 C0.05372,12.9006667 0.12444,13.44 0.35768,13.9393333 C0.79968,14.886 1.53952,15.508 2.5568,15.8073333 C2.8424,15.892 3.13888,15.932 3.43604,15.9593333 C3.81344,15.9946667 4.19084,15.9993333 4.5696,15.9993333 L12.07,15.9993333 C12.427,15.9993333 12.78264,15.9766667 13.1376,15.9326667 C13.69724,15.862 14.22356,15.6993333 14.69888,15.3926667 C15.27008,15.024 15.69984,14.5346667 15.97728,13.9206667 C16.10376,13.6406667 16.17652,13.3406667 16.22888,13.038 C16.30572,12.588 16.32272,12.1326667 16.32204,11.678 C16.32068,9.14466667 16.32204,6.61466667 16.32,4.08266667 L16.31796,4.08266667 Z M11.95032,6.74266667 L11.95032,10.5506667 C11.95032,10.8286667 11.91088,11.102 11.7844,11.3546667 C11.5872,11.748 11.2676,11.996 10.84056,12.1146667 C10.60256,12.1813333 10.36048,12.2193333 10.11296,12.23 C9.46696,12.26 8.90732,11.83 8.79172,11.206 C8.69516,10.6906667 8.94608,10.1233333 9.49756,9.858 C9.7172,9.75133333 9.95316,9.69133333 10.1898,9.642 C10.44684,9.58733333 10.70524,9.54 10.96092,9.482 C11.14724,9.44 11.27168,9.32866667 11.30772,9.138 C11.31724,9.096 11.32132,9.05133333 11.32132,9.00933333 C11.32132,7.79933333 11.32132,6.58933333 11.31996,5.38066667 C11.31996,5.33933333 11.31316,5.29733333 11.30228,5.25733333 C11.27508,5.15733333 11.20028,5.09533333 11.09556,5.10133333 C10.98676,5.108 10.87932,5.12466667 10.77256,5.14533333 C10.25576,5.24533333 9.73896,5.34733333 9.22216,5.44933333 L7.64048,5.76266667 L6.70616,5.948 C6.69528,5.95 6.6844,5.95466667 6.67352,5.95666667 C6.48516,6.008 6.41716,6.092 6.40832,6.28333333 C6.40696,6.31133333 6.40832,6.34066667 6.40832,6.37 C6.40696,8.10466667 6.40832,9.83933333 6.40628,11.5733333 C6.40628,11.8533333 6.37432,12.1306667 6.26008,12.3913333 C6.07104,12.818 5.73648,13.0846667 5.28496,13.2133333 C5.04696,13.28 4.80216,13.32 4.55396,13.328 C3.90116,13.352 3.36056,12.928 3.24836,12.2986667 C3.15316,11.7573333 3.40476,11.1753333 4.03308,10.9153333 C4.27584,10.8153333 4.52948,10.7606667 4.78652,10.7086667 C4.98168,10.6686667 5.17752,10.6313333 5.37132,10.5906667 C5.63176,10.5353333 5.76776,10.3753333 5.77932,10.1146667 L5.77932,10.0146667 C5.77932,8.04133333 5.77932,6.06666667 5.78068,4.09333333 C5.78068,4.01133333 5.78952,3.92666667 5.80924,3.84666667 C5.85684,3.65666667 5.99488,3.548 6.18052,3.50133333 C6.35392,3.45733333 6.53072,3.42666667 6.70684,3.39133333 C7.20528,3.29133333 7.70372,3.194 8.20284,3.09533333 L9.74644,2.78866667 C10.20204,2.69933333 10.65764,2.60866667 11.11324,2.52 C11.26284,2.49133333 11.41448,2.46133333 11.56476,2.44933333 C11.77556,2.43266667 11.9204,2.56266667 11.94148,2.77066667 C11.94692,2.81933333 11.94964,2.86933333 11.94964,2.91933333 C11.951,4.19266667 11.951,5.46733333 11.94964,6.74066667 L11.95032,6.74266667 Z" id="Shape"></path>
            </g>
        </g>
    </g>
</svg>