<?xml version="1.0" encoding="utf-8"?>
<!-- Generator: Adobe Illustrator 23.0.3, SVG Export Plug-In . SVG Version: 6.00 Build 0)  -->
<svg version="1.1" id="Layer_1" xmlns="http://www.w3.org/2000/svg" x="0px" y="0px"
	 viewBox="0 0 24 24" style="enable-background:new 0 0 24 24;" xml:space="preserve">
<style type="text/css">
	.st0{fill:#FFFFFF;}
</style>
<title>Search</title>
<desc>Created with Sketch.</desc>
<g id="Page-2">
	<g id="hp-1920-v2" transform="translate(-1555.000000, -34.000000)">
		<g id="Search" transform="translate(1555.000000, 34.000000)">
			<g id="Shape">
				<path class="st0" d="M23.8,21.6l-6.2-6.2c1.2-1.6,1.9-3.6,1.9-5.7c0-5.4-4.4-9.7-9.7-9.7C4.4,0,0,4.4,0,9.7
					c0,5.4,4.4,9.7,9.7,9.7c2,0,3.9-0.6,5.5-1.7l6.2,6.2L23.8,21.6L23.8,21.6z M2.9,9.7c0-3.8,3.1-6.9,6.9-6.9s6.9,3.1,6.9,6.9
					s-3.1,6.9-6.9,6.9C5.9,16.6,2.9,13.5,2.9,9.7z"/>
			</g>
		</g>
	</g>
</g>
</svg>
